<svg width="512" height="512" viewBox="0 0 512 512" fill="none" xmlns="http://www.w3.org/2000/svg">
<rect width="512" height="512" rx="121" fill="#FF0000"/>
<path d="M262.858 178.001C256.613 178.024 250.406 178.639 244.451 179.652C214.685 184.718 197.726 197.89 188.458 216.397C188.285 216.742 188.556 217.142 188.941 217.112C199.507 216.286 209.929 215.433 220.08 215.496C228.473 215.548 236.68 216.226 244.631 218.061C249.904 219.279 253.211 223.855 254.239 229.107C255.268 234.358 254.538 240.564 252.48 247.049L252.38 247.364L252.217 247.651C249.516 252.399 243.773 256.178 236.453 260.179C229.132 264.18 220.201 268.077 211.299 271.465C202.398 274.854 193.545 277.723 186.388 279.622C184.213 280.2 182.207 280.681 180.384 281.066C179.89 281.17 179.547 281.621 179.585 282.123C180.366 292.337 181.759 302.889 183.518 313.557C183.614 314.141 184.196 314.513 184.767 314.357C232.631 301.264 278.242 287.039 322.709 272.227C323.631 271.92 324.416 271.293 324.868 270.433C333.029 254.899 330.684 231.198 330.044 227.642C325.893 204.59 308.848 190.384 293.424 183.729C283.785 179.57 273.267 177.962 262.858 178.001ZM205.705 222.229C202.552 222.407 199.348 222.632 196.123 222.869L181.038 274.499C182.215 274.224 183.452 273.92 184.78 273.568C186.254 273.174 187.723 272.761 189.187 272.331C192.675 261.517 204.257 226.592 205.705 222.229ZM189.451 223.365C185.669 223.652 181.855 223.94 177.998 224.19C177.886 224.345 177.749 224.519 177.539 224.979C176.989 226.179 176.364 228.257 175.829 230.799C174.759 235.885 173.96 242.886 173.496 249.899C173.032 256.912 172.894 263.973 173.081 269.244C173.174 271.879 173.356 274.084 173.582 275.495C173.599 275.601 173.61 275.604 173.628 275.7C173.788 275.697 173.987 275.685 174.166 275.678L189.451 223.365ZM238.357 223.55C232.929 223.55 228.382 227.929 228.382 233.348C228.382 238.768 232.929 243.148 238.357 243.148C243.785 243.148 248.332 238.768 248.332 233.348C248.332 227.929 243.785 223.55 238.357 223.55ZM238.357 229.815C240.487 229.815 242.067 231.405 242.067 233.348C242.067 235.293 240.487 236.883 238.357 236.883C236.227 236.883 234.647 235.292 234.647 233.348C234.647 231.405 236.227 229.815 238.357 229.815Z" fill="white"/>
<rect x="186.291" y="319.951" width="155.147" height="14.9543" rx="7.47716" transform="rotate(-16.0931 186.291 319.951)" fill="white"/>
</svg>
